<?xml version="1.0" encoding="utf-8"?>
<!-- Generator: Adobe Illustrator 16.0.0, SVG Export Plug-In . SVG Version: 6.00 Build 0)  -->
<!DOCTYPE svg PUBLIC "-//W3C//DTD SVG 1.1//EN" "http://www.w3.org/Graphics/SVG/1.1/DTD/svg11.dtd">
<svg version="1.1" id="图层_1" xmlns="http://www.w3.org/2000/svg" xmlns:xlink="http://www.w3.org/1999/xlink" x="0px" y="0px"
	 width="68.375px" height="32px" viewBox="0 0 68.375 32" enable-background="new 0 0 68.375 32" xml:space="preserve">
<g id="Selected_Items">
	<g>
		<g id="Selected_Items_40_">
			<path fill="#FFFFFF" d="M39.987,20.325c-0.373,0.142-0.642,0.304-0.805,0.491c-0.141,0.209-0.208,0.512-0.208,0.909
				c0,0.562,0.01,1.05,0.034,1.47h1.4v0.699l0.244,0.07c0.186,0.071,0.293,0.127,0.315,0.176c0.14,0.186,0.35,0.314,0.629,0.384
				c0.467,0.14,0.969,0.013,1.505-0.384c0.582-0.42,0.757-0.979,0.524-1.68c-0.211-0.608-0.596-1.039-1.154-1.296
				c-0.141-0.07-0.304-0.257-0.489-0.561l-0.246-0.418c-0.162-0.023-0.352-0.035-0.558-0.035
				C40.712,20.127,40.314,20.187,39.987,20.325z M30.47,23.055c0.373-0.35,0.561-0.735,0.561-1.154c0-0.397-0.106-0.805-0.315-1.224
				l-0.281-0.489h-4.792c-0.607,0.583-1.073,1.026-1.401,1.329c-0.162,0.139-0.232,0.337-0.208,0.594c0,0.14,0.022,0.384,0.07,0.734
				c0,0.795,0.222,1.365,0.665,1.716c0.536,0.442,1.037,0.642,1.504,0.596c0.21-0.05,0.712-0.234,1.504-0.56
				c0.699-0.327,1.248-0.597,1.645-0.806C29.911,23.511,30.26,23.266,30.47,23.055z M47.757,13.187
				c0.047-0.069-0.047-0.209-0.28-0.42c-2.684,0-4.433,0-5.249,0c-0.538-0.022-1.458-0.07-2.764-0.139l-1.856-0.106v1.052h10.008
				c0.023-0.047,0.035-0.094,0.035-0.141C47.699,13.316,47.732,13.233,47.757,13.187z M48.98,12.627
				c-0.07-0.023-0.187-0.023-0.351,0h-0.208v0.664l0.28,0.038c0.186,0.071,0.278,0.198,0.278,0.384c0,0.163-0.057,0.316-0.175,0.455
				l-0.175,0.175l0.142,1.714h0.42v-2.974c0-0.14-0.011-0.234-0.035-0.28C49.133,12.71,49.073,12.648,48.98,12.627z M58.323,18.68
				c-0.092,0.189-0.257,0.281-0.49,0.281h-4.828l-0.175-0.21c-0.048,0.022-0.104,0.058-0.176,0.105
				c-0.115,0.068-0.174,0.116-0.174,0.14s0.15,0.198,0.454,0.525c0.281,0.371,0.41,0.665,0.385,0.875
				c-0.045,0.28-0.139,1.025-0.279,2.239c-0.115,1.211-0.174,1.913-0.174,2.098c0,0.141-0.049,0.234-0.14,0.28
				c-0.048,0.046-0.164,0.07-0.351,0.07h-2.028c-0.094,0-0.176-0.083-0.247-0.245c-0.092-0.188-0.14-0.432-0.14-0.734
				c0-0.396-0.012-0.782-0.035-1.155c-0.049-0.419-0.104-0.662-0.175-0.734c-0.048-0.07-0.397-0.14-1.049-0.21
				c-0.632-0.047-0.992-0.022-1.087,0.07c-0.139,0.14-0.255,0.257-0.348,0.351c-0.165,0.162-0.245,0.314-0.245,0.454
				c-0.024,0.092-0.082,0.724-0.176,1.889c-0.257,1.262-0.747,2.252-1.47,2.976c-0.746,0.769-1.914,1.307-3.497,1.61
				c-1.216,0.231-2.207,0.29-2.976,0.175c-0.467-0.071-0.747-0.152-0.841-0.247c-0.048-0.023-0.048-0.127,0-0.314
				c0.561-1.935,0.817-2.998,0.771-3.184c-0.047-0.162-0.093-0.282-0.142-0.35c-0.091-0.118-0.22-0.176-0.383-0.176
				c-0.14-0.023-0.526-0.035-1.155-0.035c-0.325-0.023-0.665-0.033-1.015-0.033c-0.069,0-0.141,0.056-0.209,0.174
				c-0.072,0.138-0.143,0.245-0.212,0.313c-0.07,0.094-0.349,0.328-0.839,0.701c-0.606,0.488-1.238,0.934-1.888,1.33
				c-1.985,1.235-3.665,1.854-5.042,1.854c-1.327,0-2.752-0.047-4.268-0.141l-1.855-0.175l-0.034-1.155
				c-2.846-1.165-4.468-1.771-4.862-1.818c-0.236-0.023-0.493-0.035-0.77-0.035l-0.351-0.037l-0.279,0.491
				c-0.21,0.305-0.409,0.455-0.597,0.455H1.322c-0.21,0-0.396-0.15-0.559-0.455c-0.117-0.257-0.175-0.535-0.175-0.839v-5.841
				c0-1.214-0.022-2.557-0.071-4.026c-0.046-1.167-0.07-1.772-0.07-1.82c0.07-0.443,0.175-0.664,0.316-0.664h17.669
				c0.119,0,0.444-0.058,0.981-0.174c0.513-0.095,0.877-0.142,1.085-0.142h12.597l0.036-1.503c0-0.094,0.187-0.539,0.558-1.33
				c0.375-0.818,0.561-1.307,0.561-1.47c0.024-0.141,0.175-0.292,0.456-0.456c0.14-0.07,0.279-0.128,0.421-0.175
				c0-0.209,0.022-0.418,0.07-0.629c0.067-0.42,0.126-0.666,0.174-0.734c0.304-0.444,0.561-0.666,0.77-0.666
				c0.232,0,0.407,0.127,0.525,0.383c0.047,0.142,0.094,0.339,0.141,0.597c0.046,0.164,0.046,0.513,0,1.049
				c-0.023,0-0.06,0.013-0.105,0.036c-0.048,0.046-0.071,0.128-0.071,0.245V9.3h9.938l1.259-0.734c0.234,0,0.352-0.08,0.352-0.244
				V7.763h-0.21V6.89l0.175-0.176l0.385-0.244l0.806-0.071c0.045,0,0.093,0.059,0.139,0.175c0.024,0.092,0.037,0.197,0.037,0.315
				v1.539l0.14,0.522c0.116,0.329,0.199,0.504,0.244,0.526c0.095,0.024,0.409,0.024,0.946,0c1.398,1.517,2.134,2.31,2.204,2.381
				c0.163,0.21,0.246,0.431,0.246,0.664v3.78h4.794l0.209,0.21c0.162,0.211,0.246,0.537,0.246,0.979
				C58.535,18.074,58.463,18.472,58.323,18.68z"/>
		</g>
	</g>
</g>
<g id="guides">
</g>
<path fill="#FFFFFF" d="M51.563,21.25c0,0.188-0.25,3.834-0.25,3.834h6.563L58.537,20h7.775v-7h-0.875l-0.063-6.777H35.063h-0.875
	v3.34l17.438,0.125L51.563,21.25z"/>
<path fill="#FFFFFF" d="M35.813,2.375h0.875v3.848c0,0,6.375,1.277,6,1.34S36.375,8,36.375,8l-1.179-0.377L35.813,2.375z"/>
</svg>
